<?xml version="1.0" encoding="UTF-8"?>
<svg id="_レイヤー_2" data-name="レイヤー 2" xmlns="http://www.w3.org/2000/svg" viewBox="0 0 1478.57 272.06">
  <defs>
    <style>
      .cls-1 {
        fill: #000000;
      }
    </style>
  </defs>
  <g id="_レイヤー_1-2" data-name="レイヤー 1">
    <g>
      <path class="cls-1" d="M1015.55,163.34c0,44.99,14.06,60.92,44.29,60.92,10.31,0,24.13-4.92,31.4-8.67v6.09h25.31V55.79h-25.54v49.21c-6.79-1.17-19.21-3.05-26.71-3.05-33.51,0-48.74,18.98-48.74,61.39ZM1091,126.55v69.12c-5.86,2.34-17.57,5.62-27.18,5.62-14.29,0-22.26-8.2-22.26-37.96,0-26.71,7.26-39.13,24.6-39.13,7.73,0,19.21,1.41,24.84,2.34Z"/>
      <path class="cls-1" d="M1302.83,101.95c-39.13,0-52.25,22.49-52.25,60.45s12.18,61.86,52.25,61.86,52.25-22.96,52.25-61.86-12.89-60.45-52.25-60.45ZM1302.83,202.47c-21.56,0-26.24-12.89-26.24-40.07s5.86-38.66,26.24-38.66,26.24,11.72,26.24,38.66-4.45,40.07-26.24,40.07Z"/>
      <path class="cls-1" d="M990.01,221.69V55.79h-25.54v49.21c-6.79-1.17-19.21-3.05-26.71-3.05-33.51,0-48.74,18.98-48.74,61.39,0,44.99,14.06,60.92,44.29,60.92,10.31,0,24.13-4.92,31.4-8.67v6.09h25.31ZM964.47,195.68c-5.86,2.34-17.57,5.62-27.18,5.62-14.29,0-22.26-8.2-22.26-37.96,0-26.71,7.26-39.13,24.6-39.13,7.73,0,19.21,1.41,24.84,2.34v69.12Z"/>
      <g>
        <path class="cls-1" d="M293.59,243.06c-5.3.58-10.52,1.01-15.67,1.34l.32,5.03c9.52-.6,19.9-1.55,30.83-3.3l1.51-.07c10.41-.46,12.36-.54,20.58,3.13,11.26,15.51,26.93,23.26,47.27,20.72,8.27-7.19-33.51-28.85-47.33-26.23-1.24-.51-2.35-.94-3.39-1.3,10.86-2.65,22.08-6.25,33.42-11.22,5.99.41,11.5,1.42,15.96,2.5,2.33,1.61,5.67,1.32,8.4,3.46,6.11,4.79,8.91,12.36,20.69,14.17,11.79,1.81,19.42.28,28.22-8.65-5.98-7.7-9.89-8.6-13.48-9.66-6.7-1.98-19.79-2.99-36.98-2.71-3.56-1.07-8.43-2.32-14.1-3.2,8.6-4.29,17.22-9.4,25.78-15.53,1.3-.93,2.59-1.88,3.88-2.85,1.38.12,4.92.4,9.7.4,2.16,0,4.58-.06,7.15-.21,1.12,4.24,4.98,7.38,9.57,7.38,5.46,0,9.9-4.44,9.9-9.9s-4.44-9.9-9.9-9.9c-4.31,0-7.98,2.78-9.34,6.63-3.88.24-7.41.26-10.25.19,4.29-3.55,8.48-7.31,12.58-11.3,8.18-1.66,19.24,3.11,19.36,3.17l.15-.35c10.69,12.18,32.99,6.66,40.42-7.29-15.51-7.56-25.16-.5-39.1,2.79-1.95-.8-8.6-3.32-15.54-3.66,3.62-3.77,7.15-7.72,10.6-11.84l.06.49c1.25-.14,28.99-3.41,41.53-8.96,1.82,2.28,4.61,3.75,7.75,3.75,5.46,0,9.9-4.44,9.9-9.9s-4.44-9.9-9.9-9.9-9.9,4.44-9.9,9.9c0,0,0,0,0,0-7.43,3.51-23.64,6.38-33.97,7.85,4.07-5.22,8.02-10.69,11.82-16.4,3.21-4.82,6.33-9.86,9.38-15.09,2.44-.36,5.53-.56,8.26,0,1.3,1.37,3.24,2.43,5.57,3.22.36.25.84.47,1.47.47v-.03c12.65,3.47,34.36.18,34.28-4.74-11.26-11.96-24.5-6.81-37.67-3.11-2.74-1.05-5.85-1.32-8.85-1.19,3.41-6.11,6.73-12.47,9.93-19.09,11.66-5.24,18.89-1.89,21.47-.19l.36-.55c.87,4.57,4.9,8.04,9.72,8.04,5.46,0,9.9-4.44,9.9-9.9s-4.44-9.9-9.9-9.9c-4.16,0-7.72,2.58-9.18,6.22-3.7-1.78-10.11-3.54-18.88-1.11.55-1.2,1.09-2.42,1.63-3.64,5.06-6.55,13.63-8.82,18.33-9.58,11.59.34,37.52-5.81,36.41-18.88-15.37-2.01-27.09-.16-38.24,14.06-3.3.61-7.78,1.82-12.1,4.23,5.48-13.13,10.58-27.08,15.27-41.8h-.05c3.44-5.12,8.06-13.08,10.12-21.46,2.15-9.14.91-22.62-7.31-27.31-16.5,20.11-11.07,31.18-7.94,48.39-5.85,18.23-12.16,34.77-18.86,49.77-.18.25-.36.49-.53.75l.15.1c-.1.22-.2.45-.3.68-1.62-3.55-3.9-5.71-6.14-7.82-.62-.58-1.25-1.18-1.87-1.81-2.9-5.66-8.13-12.64-9.84-15.19-3.61-5.4-9.62-18.17-17.25-16.78-2.64,18.39,12.13,29.66,25.89,37.82,2.85,2.7,5.09,5.03,6.01,10.69-.11.22-.21.44-.32.67-5.24-1.72-10.79-1.04-14.25-.27-1.68-3.08-4.95-5.17-8.7-5.17-5.46,0-9.9,4.44-9.9,9.9s4.44,9.9,9.9,9.9c5.15,0,9.39-3.95,9.86-8.98,2.6-.58,6.73-1.15,10.54-.13-13.03,26.28-27.34,47.34-42.42,64.2,2.3-7.35,3.21-14.38,3.27-19.56,2.77-12.35,12.13-33.02-4.22-34.56.89,11.05-8.58,26.93-.85,36.03-.3,7.38-2.4,18.21-7.9,28.03l.16.09c-10.81,10.66-21.96,19.36-33.26,26.46,9.67-10.73,11.43-17.62,12.8-24.19,10.03-8.06,10.9-37.52,2.12-41.29-8.75,12.59-11.07,24.75-6.76,38.82-.04.18-.08.36-.11.54-1.82,8.79-3.54,17.09-25.42,35.72l.03.04c-10.89,5.31-21.85,9.34-32.72,12.4,7.36-5.33,9.92-10.39,13.9-18.27l-.24-.12c12.1-8.4,13.67-20.02,13.96-37.37,0-.28-.03-.56-.11-.83l-1.5-5.21c-13.08,16.54-22.57,27.11-17.55,43.11-5.04,9.87-8.19,14.5-26.59,22.97-3.96.77-7.91,1.42-11.82,1.99,2.84-2.97,4.5-5.93,5.46-8.34,8.72-9.47,8.17-26.86,12.4-38.83-20.67,3.54-18.73,22.66-18.01,38.98-1.56,2.86-4.38,6.35-9.47,9.42ZM425.92,201.5c2.68,0,4.86,2.18,4.86,4.86s-2.18,4.86-4.86,4.86-4.86-2.18-4.86-4.86,2.18-4.86,4.86-4.86ZM484.14,155.32c2.68,0,4.86,2.18,4.86,4.86s-2.18,4.86-4.86,4.86-4.86-2.18-4.86-4.86,2.18-4.86,4.86-4.86ZM505.99,104.64c2.68,0,4.86,2.18,4.86,4.86s-2.18,4.86-4.86,4.86-4.86-2.18-4.86-4.86,2.18-4.86,4.86-4.86ZM448.05,116.91c-2.68,0-4.86-2.18-4.86-4.86s2.18-4.86,4.86-4.86,4.86,2.18,4.86,4.86-2.18,4.86-4.86,4.86Z"/>
        <path class="cls-1" d="M.03,72.28c-1.11,13.07,24.82,19.21,36.41,18.88,4.7.77,13.27,3.03,18.33,9.58.54,1.21,1.08,2.44,1.63,3.64-8.78-2.43-15.19-.67-18.88,1.11-1.47-3.64-5.03-6.22-9.18-6.22-5.46,0-9.9,4.44-9.9,9.9s4.44,9.9,9.9,9.9c4.82,0,8.85-3.47,9.72-8.04l.36.55c2.58-1.7,9.82-5.05,21.47.19,3.2,6.62,6.51,12.98,9.93,19.09-3-.14-6.1.14-8.85,1.19-13.17-3.7-26.42-8.85-37.67,3.11-.09,4.92,21.63,8.21,34.28,4.74v.03c.63,0,1.11-.22,1.47-.47,2.33-.79,4.27-1.85,5.57-3.22,2.73-.57,5.81-.36,8.26,0,3.05,5.23,6.17,10.27,9.38,15.09,3.8,5.72,7.74,11.18,11.82,16.4-10.34-1.48-26.54-4.34-33.97-7.85,0,0,0,0,0,0,0-5.46-4.44-9.9-9.9-9.9s-9.9,4.44-9.9,9.9,4.44,9.9,9.9,9.9c3.14,0,5.93-1.47,7.75-3.75,12.54,5.55,40.28,8.81,41.53,8.96l.06-.49c3.45,4.12,6.98,8.07,10.6,11.84-6.94.34-13.59,2.86-15.54,3.66-13.94-3.29-23.59-10.35-39.1-2.79,7.42,13.95,29.73,19.47,40.42,7.29l.15.35c.12-.05,11.18-4.83,19.36-3.17,4.09,3.99,8.29,7.75,12.58,11.3-2.84.07-6.38.05-10.25-.19-1.35-3.86-5.02-6.63-9.34-6.63-5.46,0-9.9,4.44-9.9,9.9s4.44,9.9,9.9,9.9c4.59,0,8.45-3.14,9.57-7.38,2.58.15,4.99.21,7.15.21,4.77,0,8.32-.27,9.7-.4,1.28.97,2.58,1.92,3.88,2.85,8.56,6.13,17.18,11.24,25.78,15.53-5.67.88-10.54,2.13-14.1,3.2-17.19-.28-30.28.72-36.98,2.71-3.59,1.06-7.5,1.96-13.48,9.66,8.8,8.93,16.44,10.46,28.22,8.65,11.79-1.81,14.58-9.38,20.69-14.17,2.73-2.14,6.07-1.85,8.4-3.46,4.47-1.08,9.97-2.09,15.96-2.5,11.34,4.96,22.56,8.57,33.41,11.22-1.04.36-2.16.78-3.39,1.3-13.82-2.62-55.6,19.04-47.33,26.23,20.34,2.54,36.02-5.21,47.27-20.72,8.22-3.67,10.18-3.59,20.58-3.13l1.51.07c10.94,1.75,21.31,2.7,30.83,3.3l.32-5.03c-5.14-.32-10.37-.76-15.67-1.34-5.09-3.06-7.91-6.55-9.47-9.42.71-16.32,2.66-35.43-18.01-38.98,4.23,11.98,3.68,29.37,12.4,38.84.96,2.41,2.62,5.37,5.46,8.34-3.91-.57-7.85-1.22-11.82-1.99-18.4-8.47-21.55-13.1-26.59-22.97,5.03-16-4.47-26.57-17.55-43.11l-1.5,5.21c-.08.27-.12.55-.11.83.29,17.35,1.86,28.97,13.96,37.37l-.24.12c3.98,7.88,6.54,12.94,13.9,18.27-10.88-3.06-21.83-7.09-32.72-12.4l.03-.04c-21.89-18.63-23.6-26.93-25.42-35.72-.04-.18-.08-.36-.11-.54,4.3-14.07,1.98-26.23-6.76-38.82-8.77,3.76-7.91,33.23,2.12,41.29,1.37,6.57,3.14,13.46,12.8,24.19-11.31-7.1-22.45-15.8-33.27-26.46l.16-.09c-5.5-9.82-7.6-20.65-7.9-28.03,7.73-9.1-1.74-24.98-.85-36.03-16.35,1.55-6.99,22.21-4.22,34.56.06,5.18.97,12.21,3.27,19.56-15.08-16.87-29.39-37.92-42.42-64.2,3.81-1.02,7.94-.45,10.54.13.47,5.03,4.71,8.98,9.86,8.98,5.46,0,9.9-4.44,9.9-9.9s-4.44-9.9-9.9-9.9c-3.75,0-7.02,2.09-8.7,5.17-3.46-.77-9.01-1.45-14.25.27-.11-.22-.21-.44-.32-.67.92-5.66,3.16-7.99,6.01-10.69,13.76-8.16,28.53-19.43,25.89-37.82-7.64-1.39-13.65,11.38-17.25,16.78-1.71,2.55-6.93,9.53-9.84,15.19-.62.63-1.25,1.23-1.87,1.81-2.23,2.11-4.51,4.27-6.14,7.82-.1-.22-.2-.45-.3-.68l.15-.1c-.17-.26-.35-.5-.53-.75-6.7-15-13.01-31.54-18.86-49.77,3.13-17.21,8.56-28.28-7.94-48.39-8.22,4.68-9.47,18.17-7.31,27.31,2.06,8.38,6.68,16.33,10.12,21.44h-.05c4.69,14.74,9.79,28.68,15.27,41.81-4.31-2.4-8.8-3.62-12.1-4.23C27.13,72.11,15.4,70.27.03,72.28ZM28.34,114.02c-2.68,0-4.86-2.18-4.86-4.86s2.18-4.86,4.86-4.86,4.86,2.18,4.86,4.86-2.18,4.86-4.86,4.86ZM50.2,164.71c-2.68,0-4.86-2.18-4.86-4.86s2.18-4.86,4.86-4.86,4.86,2.18,4.86,4.86-2.18,4.86-4.86,4.86ZM108.42,210.89c-2.68,0-4.86-2.18-4.86-4.86s2.18-4.86,4.86-4.86,4.86,2.18,4.86,4.86-2.18,4.86-4.86,4.86ZM86.28,106.86c2.68,0,4.86,2.18,4.86,4.86s-2.18,4.86-4.86,4.86-4.86-2.18-4.86-4.86,2.18-4.86,4.86-4.86Z"/>
      </g>
      <polygon class="cls-1" points="1194.1 272.06 1238.39 104.53 1213.08 104.53 1188.24 199.89 1181.92 199.89 1157.31 104.53 1132.01 104.53 1162.7 221.69 1182.85 221.69 1168.79 272.06 1194.1 272.06"/>
      <path class="cls-1" d="M635.96,221.69h62.8c31.16,0,51.08-12.65,51.08-45.46,0-22.03-8.9-31.87-22.73-37.26,12.65-7.03,18.75-16.64,18.75-36.08,0-29.76-17.1-41.71-48.97-41.71h-60.92v160.5ZM662.2,83.91h33.27c15.93,0,23.67,6.56,23.67,22.26s-6.79,23.2-22.73,23.2h-34.21v-45.46ZM662.2,151.86h34.68c12.65,0,26.24,4.92,26.24,22.96,0,19.21-9.61,24.13-25.77,24.13h-35.15v-47.1Z"/>
      <path class="cls-1" d="M1438.03,101.95c-11.01,0-24.84,5.62-32.1,9.84v-7.26h-25.54v117.16h25.54v-90.68c5.62-2.81,16.64-6.09,26.48-6.09,17.81,0,20.62,11.48,20.62,34.68v62.09h25.54v-62.8c0-38.43-7.97-56.94-40.54-56.94Z"/>
      <path class="cls-1" d="M867.93,221.69v-117.16h-25.54v90.68c-5.39,2.81-15.93,6.09-26.71,6.09-17.81,0-19.68-9.84-19.68-35.38v-61.39h-25.54v61.16c0,38.9,7.03,58.58,37.96,58.58,13.36,0,22.73-3.75,34.21-9.84v7.26h25.31Z"/>
    </g>
  </g>
</svg>